<?xml version="1.0" encoding="utf-8"?>
<!-- Generator: Adobe Illustrator 23.1.0, SVG Export Plug-In . SVG Version: 6.00 Build 0)  -->
<svg version="1.1" id="_x30_" xmlns="http://www.w3.org/2000/svg" xmlns:xlink="http://www.w3.org/1999/xlink" x="0px" y="0px"
	 viewBox="0 0 612 792" style="enable-background:new 0 0 612 792;" xml:space="preserve">
<style type="text/css">
	.st0{fill:none;stroke:#000000;stroke-width:0.7087;stroke-linecap:round;stroke-linejoin:round;stroke-miterlimit:10;}
</style>
<g id="LWPOLYLINE">
	<path class="st0" d="M612,777.3V13.7c0-7.8-6.3-14.2-14.2-14.2H141.7C63.5-0.5,0,63,0,141.2v508.5C0,728,63.5,791.5,141.7,791.5
		h456.1C605.7,791.5,612,785.2,612,777.3z"/>
</g>
<g id="CIRCLE">
	<path class="st0" d="M541.3,440c-4.7,0-8.5-3.8-8.5-8.5s3.8-8.5,8.5-8.5s8.5,3.8,8.5,8.5S546,440,541.3,440L541.3,440z"/>
</g>
<g id="CIRCLE_1_">
	<path class="st0" d="M541.3,746c-4.7,0-8.5-3.8-8.5-8.5s3.8-8.5,8.5-8.5s8.5,3.8,8.5,8.5S546,746,541.3,746L541.3,746z"/>
</g>
<g id="CIRCLE_2_">
	<path class="st0" d="M541.3,134c-4.7,0-8.5-3.8-8.5-8.5s3.8-8.5,8.5-8.5s8.5,3.8,8.5,8.5S546,134,541.3,134L541.3,134z"/>
</g>
<g id="CIRCLE_3_">
	<path class="st0" d="M541.3,62c-4.7,0-8.5-3.8-8.5-8.5s3.8-8.5,8.5-8.5s8.5,3.8,8.5,8.5S546,62,541.3,62L541.3,62z"/>
</g>
<g id="CIRCLE_4_">
	<path class="st0" d="M541.3,368c-4.7,0-8.5-3.8-8.5-8.5s3.8-8.5,8.5-8.5s8.5,3.8,8.5,8.5S546,368,541.3,368L541.3,368z"/>
</g>
<g id="CIRCLE_5_">
	<path class="st0" d="M541.3,674c-4.7,0-8.5-3.8-8.5-8.5s3.8-8.5,8.5-8.5s8.5,3.8,8.5,8.5S546,674,541.3,674L541.3,674z"/>
</g>
</svg>
